<svg xmlns="http://www.w3.org/2000/svg" width="229.98" height="260" viewBox="0 0 229.98 260"><title>Gurgel Motores</title><g fill-rule="nonzero" transform="matrix(0.29190057,0,0,0.29190057,-2.1892543,-1.7696472)"><rect fill="#FFF" height="880.58" width="777.75" stroke="#419edc" y="11.141" x="12.569" stroke-width="10.138"/><path fill="#40a3da" d="m51.646,47.321,0,26.106,0,139.02,0,70.967,183.95,0,0-70.967,525.73,0,0-165.13-709.67,0zm256.37,236.09,0,102.84,254.91,0,0,160.75-327.34,0,0-161.45-183.95,0,0,161.45,0,48.537,0,129.64,709.67,0,0-178.18,0-263.59-33.266,0-420.04,0z"/><path fill="#41a3e0" d="m53.233,754.68,108.04,0,0,28.675-108.04,0,0-28.675zm0,76.553,108.04,0,0,28.675-108.04,0,0-28.675zm0-69.128,28.675,0,0,80.393-28.675,0,0-80.393zm38.148,30.723,69.896,0,0,28.675-69.896,0,0-28.675zm38.404,4.0964,31.491,0,0,52.998-31.491,0,0-52.998zm41.989-42.245,28.675,0,0,104.72-28.675,0,0-104.72zm0,76.553,108.04,0,0,28.675-108.04,0,0-28.675zm79.369-76.553,28.675,0,0,104.72-28.675,0,0-104.72zm38.916,0.5121,28.675,0,0,104.72-28.675,0,0-104.72zm1.0241-0.5121,108.04,0,0,28.675-108.04,0,0-28.675zm0,39.172,108.04,0,0,28.675-108.04,0,0-28.675zm79.369-35.972,28.675,0,0,53.766-28.675,0,0-53.766zm-5.9323,102.03-31.625-40.441,22.661-17.571,44.615,58.011-35.651,0zm46.385-105.23,108.04,0,0,28.675-108.04,0,0-28.675zm0,76.553,108.04,0,0,28.675-108.04,0,0-28.675zm0-68.232,28.675,0,0,80.393-28.675,0,0-80.393zm38.148,30.723,69.896,0,0,28.675-69.896,0,0-28.675zm38.404,4.0964,31.491,0,0,52.998-31.491,0,0-52.998zm41.477-43.141,108.04,0,0,28.675-108.04,0,0-28.675zm0,14.594,28.675,0,0,80.393-28.675,0,0-80.393zm0,61.959,108.04,0,0,28.675-108.04,0,0-28.675zm7.6809-36.1,89.866,0,0,28.675-89.866,0,0-28.675zm111.37,36.1,108.04,0,0,28.675-108.04,0,0-28.675zm-0.51186-76.553,28.675,0,0,83.977-28.675,0,0-83.977z"/></g></svg>